<mxfile host="app.diagrams.net" modified="2023-11-15T15:01:57.944Z" agent="Mozilla/5.0 (X11; Linux x86_64) AppleWebKit/537.36 (KHTML, like Gecko) Chrome/119.0.0.0 Safari/537.36" version="22.1.1" etag="-5VtT-HsHTXclYPCki-5" type="github">
  <diagram name="PÃ¡gina-1" id="ZNuelECcAXCwTNfUA35b">
    <mxGraphModel>
      <root>
        <mxCell id="0" />
        <mxCell id="1" parent="0" />
      </root>
    </mxGraphModel>
  </diagram>
</mxfile>
